#!OML:ASF X:\für Bonn\!DataBase\2005_08_11_Bastian_Final\c3d\Bastian.ASF
:FULLY-SPECIFIED
:DEGREES
61
root -3.2837 16.7518 7.12508 165.09 -10.016 -172.044
lowerback 12.5205 -2.10541 3.10116
upperback 6.6251 -3.60413 5.50793
thorax 0.157256 -2.34035 4.44617
lowerneck 3.01555 -10.7544 -5.3889
upperneck -12.2424 -14.5779 7.4402
head -3.55404 -7.52472 3.90563
rclavicle -4.87022e-015 3.18055e-014
rhumerus -20.1227 9.73551 -72.547
rradius 109.133
rwrist -238.639
rhand -5.74404 -38.5758
rfingers 7.12502
rthumb 20.0784 -427.558
lclavicle -4.87022e-015 3.18055e-014
lhumerus 398.823 -23.6821 -296.727
lradius 89.8848
lwrist -138.402
lhand -16.1951 19.4921
lfingers 7.12502
lthumb 10.0119 49.234
rfemur -24.5992 13.7991 22.8219
rtibia 48.823
rfoot -11.3395 -8.02654
rtoes -2.2999
lfemur 14.3078 -10.0237 -15.7083
ltibia 32.8732
lfoot -26.9949 -8.55243
ltoes 10.8398
62
root -3.27449 16.7322 7.10983 164.886 -11.0451 -171.96
lowerback 12.564 -2.11838 3.22578
upperback 6.47323 -3.55643 5.49954
thorax -0.0369453 -2.29643 4.37057
lowerneck 3.37667 -11.1516 -5.52192
upperneck -12.0687 -15.0853 7.61553
head -3.49934 -7.76802 4.00292
rclavicle -2.41523e-014 6.04305e-014
rhumerus -18.1905 9.28052 -71.7237
rradius 109.427
rwrist -238.306
rhand -5.71433 -38.8501
rfingers 7.12502
rthumb 20.1069 -427.83
lclavicle -2.41523e-014 6.04305e-014
lhumerus 401.391 -23.2587 -297.406
lradius 89.0166
lwrist -138.605
lhand -15.9984 20.0704
lfingers 7.12502
lthumb 10.2017 49.803
rfemur -24.4157 14.9086 22.0514
rtibia 48.206
rfoot -12.1146 -7.54758
rtoes -2.56922
lfemur 14.0611 -10.7388 -15.7601
ltibia 33.4559
lfoot -27.2107 -8.95875
ltoes 10.7608
63
root -3.26347 16.7112 7.09052 164.664 -12.1078 -171.843
lowerback 12.5976 -2.11554 3.34971
upperback 6.31723 -3.49137 5.52914
thorax -0.227926 -2.24656 4.33279
lowerneck 3.73336 -11.5746 -5.70798
upperneck -12.2286 -15.5838 8.04905
head -3.16284 -8.04273 3.79232
rclavicle 3.69739e-014 5.96354e-014
rhumerus -16.2871 8.77463 -70.7786
rradius 109.709
rwrist -237.975
rhand -5.58328 -39.0554
rfingers 7.12502
rthumb 20.2329 -428.022
lclavicle 3.69739e-014 5.96354e-014
lhumerus 403.954 -22.8721 -298.028
lradius 88.1019
lwrist -138.788
lhand -15.7957 20.5634
lfingers 7.12502
lthumb 10.3972 50.2863
rfemur -24.1968 15.9034 21.322
rtibia 47.5922
rfoot -12.8396 -7.10913
rtoes -2.86231
lfemur 13.8324 -11.4496 -15.7606
ltibia 34.0343
lfoot -27.4265 -9.38637
ltoes 10.5865
64
root -3.2515 16.6889 7.06787 164.433 -13.1661 -171.711
lowerback 12.633 -2.11755 3.47494
upperback 6.16018 -3.43324 5.55764
thorax -0.420492 -2.20092 4.29397
lowerneck 4.1556 -11.9742 -5.87596
upperneck -12.1156 -16.1062 8.22513
head -3.13264 -8.29585 3.88869
rclavicle -2.28602e-015 -2.06736e-014
rhumerus -14.4849 8.21533 -69.8399
rradius 110.001
rwrist -237.66
rhand -5.48698 -39.2143
rfingers 7.12502
rthumb 20.3255 -428.171
lclavicle -2.28602e-015 -2.06736e-014
lhumerus 406.485 -22.4452 -298.652
lradius 87.1224
lwrist -138.975
lhand -15.6705 21.0178
lfingers 7.12502
lthumb 10.518 50.7346
rfemur -23.9536 16.7882 20.6262
rtibia 46.9717
rfoot -13.5273 -6.76873
rtoes -3.35024
lfemur 13.6079 -12.166 -15.747
ltibia 34.6246
lfoot -27.6891 -9.81208
ltoes 10.2243
65
root -3.23891 16.6655 7.04183 164.207 -14.2234 -171.592
lowerback 12.6338 -2.1243 3.61274
upperback 6.0311 -3.38427 5.54267
thorax -0.567879 -2.15897 4.19969
lowerneck 4.49344 -12.3698 -5.98871
upperneck -11.9703 -16.6192 8.42595
head -3.0801 -8.54897 3.9762
rclavicle 4.36829e-014 8.74653e-015
rhumerus -12.6999 7.56859 -68.9323
rradius 110.276
rwrist -237.359
rhand -5.34466 -39.3017
rfingers 7.12502
rthumb 20.4622 -428.243
lclavicle 4.36829e-014 8.74653e-015
lhumerus 408.994 -21.9976 -299.346
lradius 86.1851
lwrist -139.233
lhand -15.4516 21.3831
lfingers 7.12502
lthumb 10.7292 51.0892
rfemur -23.7243 17.5531 19.9205
rtibia 46.3453
rfoot -14.1192 -6.45116
rtoes -3.93741
lfemur 13.3974 -12.9076 -15.7646
ltibia 35.2132
lfoot -27.9473 -10.2463
ltoes 9.92114
66
root -3.22454 16.6402 7.01377 163.974 -15.2528 -171.441
lowerback 12.633 -2.12426 3.77202
upperback 5.9018 -3.32561 5.53209
thorax -0.715442 -2.11297 4.09659
lowerneck 4.82298 -12.7572 -6.07164
upperneck -11.8221 -17.1242 8.59406
head -3.02988 -8.79848 4.04926
rclavicle -3.52843e-015 9.85972e-014
rhumerus -10.9329 6.9091 -67.997
rradius 110.488
rwrist -237.111
rhand -5.17477 -39.4246
rfingers 7.12502
rthumb 20.6255 -428.349
lclavicle -3.52843e-015 9.85972e-014
lhumerus 411.404 -21.5117 -300.01
lradius 85.3332
lwrist -139.545
lhand -15.2789 21.679
lfingers 7.12502
lthumb 10.8958 51.3763
rfemur -23.4879 18.233 19.2687
rtibia 45.7106
rfoot -14.664 -6.21683
rtoes -4.52141
lfemur 13.1778 -13.6317 -15.7317
ltibia 35.8144
lfoot -28.2119 -10.6585
ltoes 9.49523
67
root -3.2094 16.6126 6.98398 163.744 -16.2161 -171.325
lowerback 12.6454 -2.10295 3.90723
upperback 5.78505 -3.24191 5.50217
thorax -0.85771 -2.05522 3.98349
lowerneck 5.1174 -13.1312 -6.14589
upperneck -11.6546 -17.6097 8.79583
head -2.96575 -9.04134 4.12611
rclavicle -1.43622e-014 -2.06736e-014
rhumerus -9.13551 6.08665 -67.1179
rradius 110.451
rwrist -236.948
rhand -5.22935 -39.5988
rfingers 7.12502
rthumb 20.573 -428.529
lclavicle -1.43622e-014 -2.06736e-014
lhumerus 413.687 -20.9976 -300.635
lradius 84.6017
lwrist -139.96
lhand -15.0864 21.9358
lfingers 7.12502
lthumb 11.0815 51.6232
rfemur -23.2468 18.8552 18.6136
rtibia 45.0842
rfoot -15.202 -5.97553
rtoes -5.2181
lfemur 12.9838 -14.286 -15.7192
ltibia 36.4108
lfoot -28.5057 -11.0796
ltoes 9.11883
68
root -3.19324 16.5851 6.95218 163.506 -17.1505 -171.172
lowerback 12.6616 -2.07725 4.07331
upperback 5.66676 -3.15172 5.49131
thorax -1.00343 -1.99595 3.8725
lowerneck 5.43462 -13.4962 -6.2689
upperneck -11.5306 -18.0905 9.01029
head -2.91169 -9.28246 4.21621
rclavicle 1.0138e-014 8.74653e-015
rhumerus -7.33258 5.29508 -66.1812
rradius 110.233
rwrist -236.793
rhand -5.23852 -39.9043
rfingers 7.12502
rthumb 20.5642 -428.835
lclavicle 1.0138e-014 8.74653e-015
lhumerus 415.83 -20.4675 -301.198
lradius 83.8698
lwrist -140.447
lhand -14.9226 22.2349
lfingers 7.12502
lthumb 11.2394 51.9138
rfemur -22.992 19.4307 18.0236
rtibia 44.4762
rfoot -15.7376 -5.78815
rtoes -6.25279
lfemur 12.789 -14.9155 -15.6529
ltibia 37.0091
lfoot -28.8029 -11.4888
ltoes 8.54451
69
root -3.17649 16.5569 6.91627 163.28 -18.0767 -171.041
lowerback 12.6561 -2.045 4.21658
upperback 5.53998 -3.05255 5.45844
thorax -1.14668 -1.93084 3.74859
lowerneck 5.78926 -13.8533 -6.33777
upperneck -11.4173 -18.5601 9.22197
head -2.87122 -9.52081 4.30183
rclavicle -3.72721e-014 -1.04163e-013
rhumerus -5.60778 4.47856 -65.2363
rradius 109.924
rwrist -236.773
rhand -5.36871 -40.3091
rfingers 7.12502
rthumb 20.4391 -429.253
lclavicle -3.72721e-014 -1.04163e-013
lhumerus 417.914 -19.9455 -301.873
lradius 83.1011
lwrist -140.867
lhand -14.7066 22.5864
lfingers 7.12502
lthumb 11.4477 52.2538
rfemur -22.7179 19.9101 17.4497
rtibia 43.9055
rfoot -16.2534 -5.71633
rtoes -7.19469
lfemur 12.6039 -15.5505 -15.6099
ltibia 37.5957
lfoot -29.1 -11.8686
ltoes 8.11884
70
root -3.15978 16.5267 6.8758 163.032 -18.991 -170.895
lowerback 12.6199 -2.02286 4.37268
upperback 5.44558 -2.97578 5.42823
thorax -1.23808 -1.8793 3.62016
lowerneck 6.11053 -14.1847 -6.44209
upperneck -11.3242 -18.9977 9.47587
head -2.82479 -9.74588 4.40143
rclavicle 4.58696e-014 -9.38264e-014
rhumerus -3.91177 3.65808 -64.2938
rradius 109.609
rwrist -236.697
rhand -5.4712 -40.7628
rfingers 7.12502
rthumb 20.3406 -429.718
lclavicle 4.58696e-014 -9.38264e-014
lhumerus 419.941 -19.3633 -302.597
lradius 82.3683
lwrist -141.219
lhand -14.502 22.9367
lfingers 7.12502
lthumb 11.645 52.5931
rfemur -22.4004 20.2602 16.9271
rtibia 43.372
rfoot -16.7402 -5.72168
rtoes -7.59719
lfemur 12.4603 -16.1787 -15.5611
ltibia 38.1691
lfoot -29.4413 -12.2226
ltoes 7.54659
71
root -3.14279 16.4966 6.83164 162.813 -19.8978 -170.757
lowerback 12.5392 -1.99096 4.5219
upperback 5.33595 -2.88477 5.38044
thorax -1.32232 -1.81863 3.47301
lowerneck 6.51681 -14.5034 -6.51926
upperneck -11.2752 -19.4204 9.73978
head -2.80619 -9.96668 4.51004
rclavicle 3.36443e-014 0
rhumerus -2.31357 2.77227 -63.3315
rradius 109.295
rwrist -236.646
rhand -5.56746 -41.2227
rfingers 7.12502
rthumb 20.2481 -430.187
lclavicle 3.36443e-014 0
lhumerus 421.905 -18.8063 -303.334
lradius 81.6981
lwrist -141.516
lhand -14.3371 23.2167
lfingers 7.12502
lthumb 11.8041 52.8641
rfemur -22.1194 20.5322 16.4169
rtibia 42.8897
rfoot -17.1643 -5.82234
rtoes -7.73146
lfemur 12.3068 -16.8102 -15.5096
ltibia 38.7251
lfoot -29.7314 -12.5979
ltoes 7.18535
72
root -3.12513 16.4654 6.78324 162.569 -20.7918 -170.615
lowerback 12.4574 -1.96519 4.65647
upperback 5.25964 -2.81286 5.34426
thorax -1.36824 -1.7707 3.34775
lowerneck 6.83333 -14.8001 -6.62917
upperneck -11.2016 -19.8155 10.0199
head -2.76162 -10.1741 4.61741
rclavicle -3.7297e-014 -1.82882e-014
rhumerus -0.66477 1.89384 -62.3555
rradius 108.965
rwrist -236.571
rhand -5.65119 -41.6562
rfingers 7.12502
rthumb 20.1676 -430.629
lclavicle -3.7297e-014 -1.82882e-014
lhumerus 423.747 -18.1752 -304.053
lradius 81.1002
lwrist -141.71
lhand -14.2263 23.4879
lfingers 7.12502
lthumb 11.9109 53.1291
rfemur -21.8074 20.7303 15.9429
rtibia 42.4545
rfoot -17.5668 -5.96071
rtoes -8.03768
lfemur 12.206 -17.4239 -15.4553
ltibia 39.2511
lfoot -30.0585 -12.9034
ltoes 6.60669
73
root -3.1073 16.4338 6.73001 162.342 -21.6767 -170.5
lowerback 12.3911 -1.93532 4.7677
upperback 5.16173 -2.73297 5.3054
thorax -1.4444 -1.71845 3.23338
lowerneck 7.14598 -15.0903 -6.74984
upperneck -11.1309 -20.2065 10.2847
head -2.71663 -10.3789 4.72106
rclavicle -3.63279e-014 3.33958e-014
rhumerus 0.918473 0.985608 -61.3504
rradius 108.622
rwrist -236.499
rhand -5.79697 -42.103
rfingers 7.12502
rthumb 20.0275 -431.091
lclavicle -3.63279e-014 3.33958e-014
lhumerus 425.461 -17.5406 -304.724
lradius 80.5271
lwrist -141.855
lhand -14.144 23.8748
lfingers 7.12502
lthumb 11.9902 53.5114
rfemur -21.5026 20.8507 15.4781
rtibia 42.0808
rfoot -17.9199 -6.18739
rtoes -8.62241
lfemur 12.1324 -18.0385 -15.4317
ltibia 39.744
lfoot -30.3575 -13.2107
ltoes 6.10373
74
root -3.08868 16.403 6.67174 162.141 -22.5183 -170.378
lowerback 12.2931 -1.90242 4.90165
upperback 5.06645 -2.64915 5.25125
thorax -1.50187 -1.66353 3.0879
lowerneck 7.40512 -15.3563 -6.86523
upperneck -11.0301 -20.5646 10.5731
head -2.65318 -10.5693 4.82324
rclavicle 1.35919e-014 -3.97569e-015
rhumerus 2.44751 0.0945728 -60.3898
rradius 108.31
rwrist -236.334
rhand -5.87218 -42.5684
rfingers 7.12502
rthumb 19.9552 -431.564
lclavicle 1.35919e-014 -3.97569e-015
lhumerus 427.048 -16.9104 -305.384
lradius 79.9846
lwrist -141.971
lhand -14.0555 24.3184
lfingers 7.12502
lthumb 12.0755 53.95
rfemur -21.2329 20.9291 15.0592
rtibia 41.7762
rfoot -18.2592 -6.45782
rtoes -9.64995
lfemur 12.0647 -18.6219 -15.3702
ltibia 40.1983
lfoot -30.6217 -13.5761
ltoes 5.9631
75
root -3.07042 16.3719 6.60969 161.932 -23.3579 -170.274
lowerback 12.2288 -1.87646 5.03314
upperback 4.96872 -2.57268 5.18816
thorax -1.57972 -1.61291 2.93739
lowerneck 7.64344 -15.6014 -7.0284
upperneck -10.9277 -20.8994 10.9043
head -2.57664 -10.7497 4.93963
rclavicle -1.19519e-014 -3.18055e-015
rhumerus 3.8711 -0.828487 -59.4237
rradius 108.056
rwrist -236.195
rhand -5.9765 -42.9871
rfingers 7.12502
rthumb 19.8549 -431.993
lclavicle -1.19519e-014 -3.18055e-015
lhumerus 428.463 -16.2746 -305.931
lradius 79.5376
lwrist -142.047
lhand -14.0396 24.7218
lfingers 7.12502
lthumb 12.0909 54.3524
rfemur -20.9578 20.8647 14.6654
rtibia 41.5568
rfoot -18.5633 -6.76229
rtoes -11.3086
lfemur 12.0404 -19.1944 -15.3338
ltibia 40.6187
lfoot -30.8683 -13.9029
ltoes 5.58526
